<svg xmlns="http://www.w3.org/2000/svg" xmlns:xlink="http://www.w3.org/1999/xlink" viewBox="175 175 250 250">
  <defs>
    <linearGradient id="linear-gradient" x1="268.3" y1="245.3" x2="369.4" y2="346.4" gradientUnits="userSpaceOnUse">
      <stop offset="0" stop-color="#b0ff63"/>
      <stop offset="1" stop-color="#52e8c9"/>
    </linearGradient>
    <linearGradient id="linear-gradient1" x1="297.6" y1="266.9" x2="297.6" y2="381.5" gradientUnits="userSpaceOnUse">
      <stop offset="0" stop-color="#b0ff63"/>
      <stop offset="1" stop-color="#52e8c9"/>
    </linearGradient>
    <linearGradient id="linear-gradient2" x1="186.1" y1="353.3" x2="291.5" y2="353.3" gradientUnits="userSpaceOnUse">
      <stop offset=".2" stop-color="#b0ff63"/>
      <stop offset="1" stop-color="#b0ff63" stop-opacity="0"/>
    </linearGradient>
  </defs>
  <path d="M297.6,186.1v23.9c48.3,0,87.6,39.3,87.6,87.6s-39.3,87.6-87.6,87.6v23.9c61.5,0,111.5-50,111.5-111.5s-50-111.5-111.5-111.5Z" fill="url(#linear-gradient)"/>
  <path d="M285.6,252.9v155.6c4,.4,8,.7,12,.7s8.1-.2,12-.7v-155.6h-24.1Z" fill="url(#linear-gradient1)"/>
  <path d="M210,297.6c0-48.3,39.3-87.6,87.6-87.6v-23.9c-61.5,0-111.5,50-111.5,111.5h23.9Z" fill="#b0ff63"/>
  <path d="M285.6,408.5v-24.1c-42.6-5.9-75.6-42.5-75.6-86.8h-23.9c0,59.4,46.7,108.2,105.4,111.4-2-.1-3.9-.3-5.9-.5Z" fill="url(#linear-gradient2)"/>
</svg>
